<?xml version="1.0" encoding="UTF-8"?>
<svg id="Laag_1" data-name="Laag 1" xmlns="http://www.w3.org/2000/svg" viewBox="0 0 150 150">
  <defs>
    <style>
      .cls-1 {
        fill: #fff;
      }

      .cls-2 {
        fill: #5f1fa1;
      }
    </style>
  </defs>
  <rect class="cls-2" x="0" y="0" width="150" height="150" rx="75" ry="75"/>
  <path class="cls-1" d="M105.51,46.68c-5.77-2.7-11.86-4.61-18.14-5.7-.78,1.41-1.69,3.31-2.33,4.82-6.66-1.02-13.44-1.02-20.1,0-.7-1.65-1.48-3.26-2.35-4.82-6.28,1.09-12.38,3.01-18.15,5.71-11.48,17.35-14.59,34.26-13.03,50.93,6.7,5.06,14.23,8.92,22.25,11.4,1.8-2.48,3.4-5.1,4.76-7.85-2.6-.99-5.12-2.22-7.5-3.65.63-.47,1.24-.95,1.84-1.45,14.47,6.76,30.18,6.76,44.48,0,.6.5,1.22.99,1.84,1.45-2.38,1.43-4.9,2.66-7.52,3.66,1.37,2.74,2.96,5.37,4.76,7.85,8.03-2.48,15.56-6.34,22.26-11.41,1.82-19.32-3.12-36.08-13.07-50.94h0ZM60.4,87.37c-4.34,0-7.9-4.05-7.9-8.99s3.49-9,7.9-9,7.98,4.05,7.9,9c0,4.94-3.49,8.99-7.9,8.99ZM89.6,87.37c-4.34,0-7.9-4.05-7.9-8.99s3.49-9,7.9-9,7.98,4.05,7.9,9c0,4.94-3.49,8.99-7.9,8.99Z"/>
</svg>