<?xml version="1.0" encoding="UTF-8"?>
<svg id="Laag_1" xmlns="http://www.w3.org/2000/svg" version="1.1" viewBox="0 0 150 150">
  <!-- Generator: Adobe Illustrator 29.3.1, SVG Export Plug-In . SVG Version: 2.1.0 Build 151)  -->
  <defs>
    <style>
      .st0 {
        fill: #fff;
      }

      .st1 {
        fill: #5f1fa1;
      }
    </style>
  </defs>
  <rect class="st1" x="0" y="0" width="150" height="150" rx="75" ry="75"/>
  <path class="st0" d="M108.3,50.2c-1.1,11.2-5.7,38.4-8.1,50.9-1,5.3-3,7.1-4.8,7.3-4.1.4-7.2-2.7-11.3-5.3-6.2-4.1-9.8-6.6-15.8-10.6-7-4.6-2.5-7.1,1.5-11.3,1.1-1.1,19.2-17.6,19.6-19,0-.2,0-.9-.3-1.3-.4-.4-1-.2-1.5-.1-.6.1-10.6,6.7-30,19.7-2.8,1.9-5.4,2.9-7.7,2.8-2.6,0-7.4-1.4-11.1-2.6-4.4-1.4-8-2.2-7.7-4.7.2-1.3,1.9-2.6,5.3-3.9,20.7-9,34.5-14.9,41.4-17.8,19.7-8.2,23.8-9.6,26.5-9.7.6,0,1.9.1,2.8.8.6.5.9,1.2,1,1.9.2.9.2,1.9.1,2.8Z"/>
</svg>