<?xml version="1.0" encoding="UTF-8"?>
<svg id="Laag_1" xmlns="http://www.w3.org/2000/svg" version="1.1" viewBox="0 0 150 150">
  <!-- Generator: Adobe Illustrator 29.3.1, SVG Export Plug-In . SVG Version: 2.1.0 Build 151)  -->
  <defs>
    <style>
      .st0 {
        fill: #fff;
      }

      .st1 {
        fill: #5f1fa1;
      }
    </style>
  </defs>
  <rect class="st1" x="0" y="0" width="150" height="150" rx="75" ry="75"/>
  <path class="st0" d="M115.2,89c1.5-4.4,2.4-9.1,2.4-14s-.8-9.6-2.4-14c0-.1,0-.3-.1-.4-5.9-16.4-21.6-28.2-40.1-28.2s-34.1,11.8-40.1,28.2c0,.1,0,.3-.1.4-1.5,4.4-2.4,9.1-2.4,14s.8,9.6,2.4,14c0,.1,0,.3.1.4,5.9,16.4,21.6,28.2,40.1,28.2s34.1-11.8,40.1-28.2c0-.1,0-.3.1-.4ZM75,111.5c-1.6,0-4.2-2.9-6.4-9.5-1.1-3.2-1.9-6.8-2.5-10.8h17.9c-.6,4-1.5,7.6-2.5,10.8-2.2,6.6-4.8,9.5-6.4,9.5ZM65.3,85.1c-.3-3.3-.4-6.6-.4-10.1s.2-6.9.4-10.1h19.3c.3,3.3.4,6.6.4,10.1s-.2,6.9-.4,10.1h-19.3ZM38.5,75c0-3.5.5-6.9,1.4-10.1h19.2c-.3,3.3-.4,6.7-.4,10.1s.1,6.8.4,10.1h-19.2c-.9-3.2-1.4-6.6-1.4-10.1ZM75,38.5c1.6,0,4.2,2.9,6.4,9.5,1.1,3.2,1.9,6.8,2.5,10.8h-17.9c.6-4,1.5-7.6,2.5-10.8,2.2-6.6,4.8-9.5,6.4-9.5ZM90.8,64.9h19.2c.9,3.2,1.4,6.6,1.4,10.1s-.5,6.9-1.4,10.1h-19.2c.3-3.3.4-6.7.4-10.1s-.1-6.8-.4-10.1ZM107.6,58.8h-17.6c-1.1-7.5-2.9-14.2-5.6-19,10.1,2.7,18.5,9.8,23.1,19ZM65.5,39.8c-2.6,4.8-4.5,11.5-5.6,19h-17.6c4.6-9.2,13-16.2,23.1-19ZM42.4,91.2h17.6c1.1,7.5,2.9,14.2,5.6,19-10.1-2.7-18.5-9.8-23.1-19ZM84.5,110.2c2.6-4.8,4.5-11.5,5.6-19h17.6c-4.6,9.2-13,16.2-23.1,19Z"/>
</svg>